<svg width="30" height="30" viewBox="0 0 30 30" fill="none" xmlns="http://www.w3.org/2000/svg">
<path fillRule="evenodd" clipRule="evenodd" d="M23.9974 21.529C23.6254 21.752 22.9534 22.094 22.0004 22.433V17.395C18.0214 17.722 15.6774 18.916 15.0004 19.349C14.3234 18.916 11.9784 17.722 8.00038 17.395V22.432C7.04638 22.093 6.37538 21.751 6.00438 21.53L6.00038 19.586C5.99238 17.55 6.06038 17.055 7.86338 16.657C10.1434 16.15 12.4794 15.882 13.0884 14.334C13.3704 13.621 13.2054 12.825 12.6004 11.969C11.0124 9.723 10.5934 7.609 11.4174 6.017C12.0624 4.773 13.4354 4 15.0004 4C16.5624 4 17.9324 4.766 18.5734 5.999C19.4004 7.586 18.9824 9.708 17.3984 11.972C16.7984 12.829 16.6364 13.624 16.9174 14.334C17.5244 15.868 19.8464 16.149 22.1364 16.657C23.9414 17.055 24.0094 17.555 23.9994 19.614L23.9974 21.529ZM21.0004 23.994C19.4124 24.281 17.1474 24.919 15.5004 25.632V20.201C16.7164 19.418 19.1664 18.729 21.0004 18.494V23.994ZM14.5004 25.632C12.8524 24.919 10.5884 24.281 9.00038 23.994V18.494C10.8344 18.729 13.2844 19.418 14.5004 20.201V25.632ZM22.3514 15.68C19.4864 15.048 16.6884 14.729 18.2184 12.546C22.1034 6.991 18.9204 3 15.0004 3C11.0804 3 7.88038 7.022 11.7824 12.546C13.3394 14.749 10.4544 15.062 7.64838 15.68C5.08838 16.246 4.99238 17.463 5.00038 19.59L5.00438 22.065C5.00438 22.065 5.96138 22.823 8.00038 23.496V24.848C8.14838 24.87 11.5704 25.305 15.0004 26.979C18.4294 25.306 21.8664 24.868 22.0004 24.848V23.496C24.0394 22.823 24.9964 22.065 24.9964 22.065L24.9994 19.614C25.0094 17.471 24.9224 16.248 22.3514 15.68Z" fill="#52575F"/>
</svg>
