<svg width="30" height="30" viewBox="0 0 30 30" fill="none" xmlns="http://www.w3.org/2000/svg">
<path fill-rule="evenodd" clip-rule="evenodd" d="M19.272 8.451C19.096 8.001 19 7.512 19 7C19 4.792 20.792 3 23 3C25.208 3 27 4.792 27 7C27 9.208 25.208 11 23 11C21.661 11 20.475 10.341 19.749 9.33L12.618 13.081C12.864 13.672 13 14.32 13 15C13 15.681 12.864 16.33 12.616 16.922L19.747 20.673C20.473 19.66 21.66 19 23 19C25.208 19 27 20.792 27 23C27 25.208 25.208 27 23 27C20.792 27 19 25.208 19 23C19 22.49 19.096 22.001 19.27 21.553L12.141 17.802C11.241 19.128 9.722 20 8 20C5.24 20 3 17.76 3 15C3 12.24 5.24 10 8 10C9.723 10 11.243 10.873 12.143 12.201L19.272 8.451ZM23 20C24.656 20 26 21.344 26 23C26 24.656 24.656 26 23 26C21.344 26 20 24.656 20 23C20 21.344 21.344 20 23 20ZM8 11C10.208 11 12 12.792 12 15C12 17.208 10.208 19 8 19C5.792 19 4 17.208 4 15C4 12.792 5.792 11 8 11ZM23 4C24.656 4 26 5.344 26 7C26 8.656 24.656 10 23 10C21.344 10 20 8.656 20 7C20 5.344 21.344 4 23 4Z" fill="#52575F"/>
</svg>
